<svg xmlns="http://www.w3.org/2000/svg" viewBox="0 0 410 390" role="img" aria-label="Maurice Gadgets Hub logomark">
  <title>Maurice Gadgets Hub — MG Logomark</title>
  <g transform="translate(0,390) scale(0.1,-0.1)" fill="#FA4730" stroke="none">
    <path d="M731 3247 c-8 -11 -10 -390 -9 -1513 l3 -1499 195 0 195 0 3 958 2
957 34 0 c34 0 38 -5 163 -191 70 -105 143 -212 161 -237 18 -26 83 -120 144
-210 71 -104 116 -162 126 -160 15 3 38 36 321 453 89 132 225 332 302 445 77
113 186 273 241 355 56 83 116 170 133 195 17 25 79 115 137 200 58 85 117
173 131 194 47 68 53 66 -202 66 l-230 0 -36 -52 c-94 -135 -568 -830 -662
-970 -130 -194 -142 -199 -210 -95 -37 56 -119 176 -409 599 -50 73 -135 198
-190 278 -54 80 -112 165 -129 190 l-32 45 -85 3 c-63 2 -88 -1 -97 -11z
M3464 3223 c-150 -219 -473 -692 -834 -1223 -96 -140 -211 -309 -256 -375 -46
-66 -136 -199 -201 -295 -153 -225 -337 -496 -486 -713 -64 -95 -147 -216
-183 -269 -36 -53 -63 -101 -59 -107 4 -8 352 -11 1156 -11 l1149 0 0 575 0
575 -317 0 -318 0 -122 -183 c-68 -100 -123 -190 -123 -200 0 -16 19 -17 245
-17 l245 0 0 -175 0 -175 -570 0 -570 0 0 30 c0 31 7 44 141 240 36 52 139
203 229 335 90 132 236 346 324 475 88 129 204 300 258 380 54 80 103 153 110
163 8 10 25 17 45 17 l33 0 0 -265 0 -265 195 0 195 0 -2 758 -3 757 -127 3
-128 3 -26 -38z"/>
  </g>
</svg>
